<svg version="1.1" xmlns="http://www.w3.org/2000/svg" xmlns:xlink="http://www.w3.org/1999/xlink" width="161.62938" height="172.96036" viewBox="0, 0, 161.62938, 172.96036"><g transform="translate(-161.69966, -89.37561)"><g data-paper-data="{&quot;isPaintingLayer&quot;:true}" fill-rule="nonzero" stroke-linecap="butt" stroke-linejoin="miter" stroke-miterlimit="10" stroke-dasharray="" stroke-dashoffset="0" style="mix-blend-mode: normal"><g fill-opacity="0.05882" fill="#000000" stroke-opacity="0.05098" stroke="#000000" stroke-width="10"><path d="M175.30367, 216.30173c-5.9297, -15.44438 3.94269, -28.07458 19.09367, -44.23415c6.375, -6.79938 31.25904, -21.06699 34.29052, -22.8596c8.56251, -5.06328 23.59908, -12.89684 38.74108, -16.99682c19.05142, -5.15853 33.74094, -8.42998 44.97031, 5.57219c11.22938, 14.00217 -5.16433, 28.40603 -10.79522, 37.04151c-6.39076, 9.80081 -20.15638, 17.11599 -30.06984, 25.8387c-7.00532, 6.16387 -16.83031, 11.61666 -25.5762, 15.49655c-12.569, 5.57591 -25.45622, 10.42305 -30.36007, 11.12612c-17.04052, 2.44311 -34.36455, 4.45989 -40.29425, -10.9845z"/><path d="M176.19224, 136.84599c10.56065, -12.52775 26.48973, -10.516 47.95581, -5.04876c9.03218, 2.30043 33.54016, 17.20476 36.57352, 18.99417c8.56784, 5.05426 22.68719, 14.44079 33.58775, 25.7221c13.71491, 14.19394 23.67144, 25.47897 16.83017, 42.07284c-6.84128, 16.59387 -27.36975, 9.19072 -37.65067, 8.42836c-11.6683, -0.86524 -24.72011, -9.38899 -37.14488, -13.85971c-8.77993, -3.15922 -18.29836, -9.13106 -25.91837, -14.91722c-10.95096, -8.31546 -21.41732, -17.26144 -24.40043, -21.21658c-10.3661, -13.74381 -20.39355, -27.64745 -9.83291, -40.1752z"/><path d="M244.26726, 99.37562c16.39374, 2.22161 22.72587, 16.9488 29.61653, 38.00117c2.89935, 8.8581 3.45362, 37.53689 3.56891, 41.05684c0.32564, 9.9422 -0.03037, 26.8932 -3.71127, 42.1425c-4.63125, 19.18641 -8.82131, 33.64075 -26.49702, 36.75985c-17.67571, 3.1191 -22.42948, -18.17941 -27.29662, -27.26729c-5.52394, -10.31425 -5.32408, -25.90157 -8.20973, -38.78704c-2.03913, -9.10548 -2.09968, -20.34201 -1.2994, -29.87636c1.15011, -13.70211 3.09225, -27.33308 4.83222, -31.97146c6.04626, -16.11803 12.60263, -32.27982 28.99638, -30.05821z"/></g><path d="M231.17463, 178.74265c0, -7.1127 5.76598, -12.87868 12.87868, -12.87868c7.1127, 0 12.87868, 5.76598 12.87868, 12.87868c0, 7.1127 -5.76598, 12.87868 -12.87868, 12.87868c-7.1127, 0 -12.87868, -5.76598 -12.87868, -12.87868z" fill-opacity="0.25098" fill="#000000" stroke-opacity="0.16471" stroke="#000000" stroke-width="10"/><path d="M297.22978, 167.31801c0, -6.30965 5.11498, -11.42463 11.42463, -11.42463c6.30965, 0 11.42463, 5.11498 11.42463, 11.42463c0, 6.30965 -5.11498, 11.42463 -11.42463, 11.42463c-6.30965, 0 -11.42463, -5.11498 -11.42463, -11.42463z" fill-opacity="0.25098" fill="#000000" stroke-opacity="0.16471" stroke="#000000" stroke-width="6.5"/><path d="M212.47978, 118.50368c0, -5.27716 4.27799, -9.55515 9.55515, -9.55515c5.27716, 0 9.55515, 4.27799 9.55515, 9.55515c0, 5.27716 -4.27799, 9.55515 -9.55515, 9.55515c-5.27716, 0 -9.55515, -4.27799 -9.55515, -9.55515z" fill-opacity="0.25098" fill="#000000" stroke-opacity="0.16471" stroke="#000000" stroke-width="5.5"/><path d="M177.16728, 177.91176c0, -5.5066 4.46399, -9.97059 9.97059, -9.97059c5.5066, 0 9.97059, 4.46399 9.97059, 9.97059c0, 5.5066 -4.46399, 9.97059 -9.97059, 9.97059c-5.5066, 0 -9.97059, -4.46399 -9.97059, -9.97059z" fill-opacity="0.25098" fill="#000000" stroke-opacity="0.16471" stroke="#000000" stroke-width="4"/><path d="M205.83272, 226.10294c0, -7.34214 5.95198, -13.29412 13.29412, -13.29412c7.34214, 0 13.29412, 5.95198 13.29412, 13.29412c0, 7.34214 -5.95198, 13.29412 -13.29412, 13.29412c-7.34214, 0 -13.29412, -5.95198 -13.29412, -13.29412z" fill-opacity="0.25098" fill="#000000" stroke-opacity="0.16471" stroke="#000000" stroke-width="8.5"/><path d="M277.28861, 228.8033c0, -4.01523 3.25499, -7.27022 7.27022, -7.27022c4.01523, 0 7.27022, 3.25499 7.27022, 7.27022c0, 4.01523 -3.25499, 7.27022 -7.27022, 7.27022c-4.01523, 0 -7.27022, -3.25499 -7.27022, -7.27022z" fill-opacity="0.25098" fill="#000000" stroke-opacity="0.16471" stroke="#000000" stroke-width="4"/><g fill="none" stroke="#616161" stroke-width="10"><path d="M170.30367, 211.30173c-5.9297, -15.44438 3.94269, -28.07458 19.09367, -44.23415c6.375, -6.79938 31.25904, -21.06699 34.29052, -22.8596c8.56251, -5.06328 23.59908, -12.89684 38.74108, -16.99682c19.05142, -5.15853 33.74094, -8.42998 44.97031, 5.57219c11.22938, 14.00217 -5.16433, 28.40603 -10.79522, 37.04151c-6.39076, 9.80081 -20.15638, 17.11599 -30.06984, 25.8387c-7.00532, 6.16387 -16.83031, 11.61666 -25.5762, 15.49655c-12.569, 5.57591 -25.45622, 10.42305 -30.36007, 11.12612c-17.04052, 2.44311 -34.36455, 4.45989 -40.29425, -10.9845z"/><path d="M171.19224, 131.84599c10.56065, -12.52775 26.48973, -10.516 47.95581, -5.04876c9.03218, 2.30043 33.54016, 17.20476 36.57352, 18.99417c8.56784, 5.05426 22.68719, 14.44079 33.58775, 25.7221c13.71491, 14.19394 23.67144, 25.47897 16.83017, 42.07284c-6.84128, 16.59387 -27.36975, 9.19072 -37.65067, 8.42836c-11.6683, -0.86524 -24.72011, -9.38899 -37.14488, -13.85971c-8.77993, -3.15922 -18.29836, -9.13106 -25.91837, -14.91722c-10.95096, -8.31546 -21.41732, -17.26144 -24.40043, -21.21658c-10.3661, -13.74381 -20.39355, -27.64745 -9.83291, -40.1752z"/><path d="M239.26726, 94.37562c16.39374, 2.22161 22.72587, 16.9488 29.61653, 38.00117c2.89935, 8.8581 3.45362, 37.53689 3.56891, 41.05684c0.32564, 9.9422 -0.03037, 26.8932 -3.71127, 42.1425c-4.63125, 19.18641 -8.82131, 33.64075 -26.49702, 36.75985c-17.67571, 3.1191 -22.42948, -18.17941 -27.29662, -27.26729c-5.52394, -10.31425 -5.32408, -25.90157 -8.20973, -38.78704c-2.03913, -9.10548 -2.09968, -20.34201 -1.2994, -29.87636c1.15011, -13.70211 3.09225, -27.33308 4.83222, -31.97146c6.04626, -16.11803 12.60263, -32.27982 28.99638, -30.05821z"/></g><path d="M226.17463, 173.74265c0, -7.1127 5.76598, -12.87868 12.87868, -12.87868c7.1127, 0 12.87868, 5.76598 12.87868, 12.87868c0, 7.1127 -5.76598, 12.87868 -12.87868, 12.87868c-7.1127, 0 -12.87868, -5.76598 -12.87868, -12.87868z" fill="#c481ff" stroke="#a657c7" stroke-width="10"/><path d="M292.22978, 162.31801c0, -6.30965 5.11498, -11.42463 11.42463, -11.42463c6.30965, 0 11.42463, 5.11498 11.42463, 11.42463c0, 6.30965 -5.11498, 11.42463 -11.42463, 11.42463c-6.30965, 0 -11.42463, -5.11498 -11.42463, -11.42463z" fill="#c92797" stroke="#961561" stroke-width="6.5"/><path d="M207.47978, 113.50368c0, -5.27716 4.27799, -9.55515 9.55515, -9.55515c5.27716, 0 9.55515, 4.27799 9.55515, 9.55515c0, 5.27716 -4.27799, 9.55515 -9.55515, 9.55515c-5.27716, 0 -9.55515, -4.27799 -9.55515, -9.55515z" fill="#75beaf" stroke="#4d9687" stroke-width="5.5"/><path d="M172.16728, 172.91176c0, -5.5066 4.46399, -9.97059 9.97059, -9.97059c5.5066, 0 9.97059, 4.46399 9.97059, 9.97059c0, 5.5066 -4.46399, 9.97059 -9.97059, 9.97059c-5.5066, 0 -9.97059, -4.46399 -9.97059, -9.97059z" fill="#4f59f0" stroke="#2731c8" stroke-width="4"/><path d="M200.83272, 221.10294c0, -7.34214 5.95198, -13.29412 13.29412, -13.29412c7.34214, 0 13.29412, 5.95198 13.29412, 13.29412c0, 7.34214 -5.95198, 13.29412 -13.29412, 13.29412c-7.34214, 0 -13.29412, -5.95198 -13.29412, -13.29412z" fill="#f15b5b" stroke="#c93333" stroke-width="8.5"/><path d="M272.28861, 223.8033c0, -4.01523 3.25499, -7.27022 7.27022, -7.27022c4.01523, 0 7.27022, 3.25499 7.27022, 7.27022c0, 4.01523 -3.25499, 7.27022 -7.27022, 7.27022c-4.01523, 0 -7.27022, -3.25499 -7.27022, -7.27022z" fill="#a657c7" stroke="#613375" stroke-width="4"/></g></g></svg>